<svg width="53" height="60" viewBox="0 0 53 60" fill="none" xmlns="http://www.w3.org/2000/svg">
<path d="M44.7509 38.6955L52.4512 52.0271L44.0445 50.3688C43.8032 50.3212 43.5528 50.3626 43.3396 50.4854C43.1265 50.6082 42.9651 50.8041 42.8853 51.0368L40.1214 59.144L32.5823 46.0926C37.3538 44.8757 41.5648 42.2539 44.7509 38.6955ZM8.35269 38.6917C11.5834 42.3129 15.8198 44.8894 20.5212 46.0926L12.9821 59.144L10.2183 51.0368C10.1386 50.8056 9.97839 50.6109 9.76692 50.4883C9.55544 50.3656 9.30686 50.3232 9.06668 50.3688L0.652344 52.0271L8.35269 38.6917Z" fill="white"/>
<path d="M26.5517 0.0478545C23.6118 0.0463398 20.7003 0.62442 17.984 1.74903C15.2676 2.87365 12.7996 4.52273 10.721 6.60196C8.64253 8.68119 6.99429 11.1498 5.87061 13.8665C4.74693 16.5833 4.16985 19.4949 4.17237 22.4349C4.17237 34.8031 14.1798 44.8104 26.5517 44.8104C38.9237 44.8104 48.9311 34.8031 48.9311 22.4311C48.9326 19.4917 48.3548 16.5809 47.2307 13.8651C46.1065 11.1492 44.4582 8.6815 42.3797 6.60309C40.3013 4.52467 37.8336 2.87627 35.1178 1.75214C32.4019 0.628006 29.4911 0.0463408 26.5517 0.0478545ZM26.5517 4.11683C36.6513 4.11683 44.8622 12.3316 44.8622 22.4349C44.8581 27.2895 42.9275 31.9441 39.4944 35.3765C36.0613 38.8088 31.4064 40.7384 26.5517 40.7415C21.6971 40.7374 17.0426 38.8069 13.6102 35.3738C10.1778 31.9407 8.24824 27.2857 8.24519 22.4311C8.24925 17.5768 10.1792 12.9224 13.6113 9.48951C17.0435 6.05663 21.6974 4.12575 26.5517 4.12067V4.11683ZM26.5517 6.15132C24.4131 6.14981 22.2952 6.56999 20.3191 7.38783C18.343 8.20566 16.5476 9.40511 15.0355 10.9175C13.5234 12.43 12.3244 14.2257 11.507 16.202C10.6897 18.1782 10.27 20.2963 10.272 22.4349C10.271 24.5725 10.6915 26.6894 11.5094 28.6644C12.3273 30.6393 13.5266 32.4336 15.0387 33.9446C16.5507 35.4556 18.3459 36.6536 20.3214 37.4702C22.297 38.2867 24.4141 38.7057 26.5517 38.7031C28.689 38.7057 30.8058 38.2866 32.7809 37.47C34.756 36.6534 36.5507 35.4552 38.0621 33.9442C39.5736 32.4331 40.7721 30.6387 41.5892 28.6638C42.4063 26.6889 42.8258 24.5722 42.8238 22.4349C42.8269 20.2966 42.4081 18.1788 41.5916 16.2025C40.775 14.2263 39.5768 12.4305 38.0653 10.918C36.5538 9.40547 34.7589 8.2059 32.7833 7.38797C30.8076 6.57004 28.69 6.1498 26.5517 6.15132ZM26.5517 11.1032C27.2734 11.1032 27.3963 11.418 27.5882 11.6137C28.7628 13.0302 29.6918 14.7998 30.7512 16.4197C32.5938 16.8804 34.4939 17.2259 36.2904 17.936C36.5361 18.055 36.9315 18.1586 37.0965 18.769C37.2578 19.3832 37.0313 20.0242 36.4708 20.6307C35.492 21.8821 34.3788 23.1834 33.3423 24.4003C33.3884 25.0951 33.7454 28.5499 33.611 30.1391C33.5727 30.4078 33.6533 30.7341 33.0736 31.1602C32.4863 31.5824 32.1984 31.4059 31.9297 31.3636C30.1486 30.903 28.3598 30.0201 26.5517 29.3368C25.6535 29.6938 22.7783 30.9759 21.1776 31.3636C20.9089 31.4059 20.6172 31.5824 20.0337 31.1602C19.4502 30.7379 19.5347 30.4078 19.4925 30.1391C19.3658 28.2965 19.6498 26.4501 19.765 24.4003C19.3159 23.8629 16.9858 21.2833 16.1682 19.9091C16.0415 19.6672 15.7843 19.4561 16.0108 18.769C16.2334 18.0819 16.5674 18.055 16.8131 17.936C18.4982 17.2719 20.4828 16.888 22.3523 16.4197C22.9089 15.5445 24.4059 12.8997 25.5153 11.6137C25.7072 11.4218 25.8301 11.1032 26.5517 11.1032ZM26.5517 13.5714C26.2113 14.0616 25.8862 14.5621 25.5767 15.0724C25.1161 15.8247 24.594 16.7076 24.0566 17.4984C23.9223 17.6903 23.8724 17.8285 23.5461 18.0627C23.2236 18.3007 23.0931 18.3007 22.8666 18.3698C21.3696 18.7767 19.8725 19.0799 18.3601 19.529C19.2122 20.6115 20.3562 21.9013 21.3158 23.1182C21.4617 23.3101 21.5692 23.3869 21.6958 23.7708C21.8187 24.1546 21.7765 24.2851 21.7726 24.5193C21.7035 26.074 21.5346 27.5864 21.4847 29.1679C22.9434 28.619 24.3407 28.0163 25.8147 27.4559C26.0412 27.3791 26.1487 27.3023 26.5517 27.3023C28.1256 27.6363 29.9298 28.5844 31.6188 29.1679C31.5497 27.6094 31.4038 26.097 31.327 24.5231C31.327 24.2851 31.2887 24.1546 31.4115 23.7708C31.5343 23.3869 31.6456 23.3101 31.7877 23.1182C32.755 21.9052 33.7915 20.7881 34.7434 19.529C33.2464 19.1068 31.7608 18.7767 30.2407 18.3736C30.0104 18.3007 29.8799 18.3007 29.5574 18.0665C29.2311 17.8285 29.1812 17.6942 29.0469 17.4984C28.1947 16.2009 27.4462 14.8766 26.5517 13.5714Z" fill="white"/>
</svg>
