<svg width="36" height="29" viewBox="0 0 36 29" fill="none" xmlns="http://www.w3.org/2000/svg">
<path fill-rule="evenodd" clip-rule="evenodd" d="M4.95125 7.24508V13.4712C4.95171 13.6404 5.00324 13.8052 5.09868 13.9428C5.19413 14.0804 5.32875 14.1839 5.48387 14.2391C5.63899 14.2942 5.80691 14.2981 5.9643 14.2504C6.1217 14.2026 6.26077 14.1055 6.36221 13.9725L9.42104 9.94788L12.4799 13.9725C12.5806 14.1069 12.7196 14.2053 12.8773 14.2539C13.0351 14.3025 13.2037 14.2989 13.3594 14.2436C13.515 14.1882 13.6499 14.0839 13.7451 13.9454C13.8403 13.8068 13.8909 13.641 13.8899 13.4712V7.24508C13.9466 7.25817 14.0046 7.26477 14.0628 7.26478H28.1256V28.9995H3.48298C3.02555 28.9996 2.57258 28.9068 2.14995 28.7264C1.72732 28.546 1.34331 28.2814 1.01986 27.9479C0.696411 27.6144 0.439861 27.2185 0.264869 26.7827C0.0898778 26.3469 -0.00012538 25.8799 1.3109e-07 25.4082V7.26478H4.77835C4.83651 7.26477 4.89449 7.25817 4.95125 7.24508ZM36 7.26478V25.4082C36.0001 25.8799 35.9101 26.3469 35.7351 26.7827C35.5601 27.2185 35.3036 27.6144 34.9801 27.9479C34.6567 28.2814 34.2727 28.546 33.8501 28.7264C33.4274 28.9068 32.9744 28.9996 32.517 28.9995H29.7037V7.26478H36ZM6.52939 -0.000488281H12.3117V11.1131L10.042 8.12664C9.96806 8.02956 9.87372 7.95106 9.76606 7.89708C9.65841 7.84311 9.54027 7.81506 9.42056 7.81506C9.30086 7.81506 9.18272 7.84311 9.07507 7.89708C8.96742 7.95106 8.87307 8.02956 8.79915 8.12664L6.52939 11.1131V-0.000488281ZM4.95125 5.65728C4.89449 5.6442 4.83651 5.63759 4.77835 5.63758H1.3109e-07V3.56812C0.0052914 2.70869 0.309326 1.87972 0.856893 1.23173L0.872177 1.214L0.882684 1.2012L0.901791 1.17953L0.931405 1.14702L0.961019 1.11452L0.991588 1.08103L1.02025 1.05148L1.04986 1.02094L1.08138 0.99041L1.11291 0.959875L1.14443 0.92934L1.16545 0.90964L1.17787 0.898805L1.19506 0.883047C1.82373 0.318836 2.62757 0.00540349 3.46101 -0.000488281H4.95125V5.65728ZM28.1256 5.63758H14.0628C14.0046 5.63759 13.9466 5.6442 13.8899 5.65728V-0.000488281H28.1256V5.63758ZM32.539 -0.000488281C33.3725 0.0049675 34.1765 0.318456 34.8049 0.883047L34.8221 0.898805L34.8346 0.90964L34.8556 0.92934L34.8881 0.959875L34.9196 0.99041L34.952 1.02193L34.9798 1.05148L35.0103 1.083L35.0399 1.11452L35.0696 1.14702L35.0982 1.17953L35.1173 1.2012L35.1288 1.214L35.1431 1.23173C35.6911 1.87944 35.9952 2.7086 36 3.56812V5.63758H29.7037V-0.000488281H32.517H32.539Z" fill="white"/>
</svg>
