<svg width="66" height="54" viewBox="0 0 66 54" fill="none" xmlns="http://www.w3.org/2000/svg">
<path d="M16.5938 39.168V39.0312H12.0217L10.0312 43.543H16.5938V39.168ZM31.9062 31.375H34.0938V33.5625H31.9062V31.375Z" fill="#AB7A18"/>
<path d="M16.8729 33.5626H18.1876L22.1297 27.4977C22.2281 27.3466 22.3622 27.222 22.5202 27.1351L32.4733 21.6664C32.6347 21.5777 32.8159 21.5312 33.0001 21.5312C33.1843 21.5312 33.3655 21.5777 33.5269 21.6664L43.48 27.1351C43.638 27.222 43.7722 27.3466 43.8705 27.4977L47.8124 33.5626H49.1271C49.1759 33.5625 49.2238 33.5495 49.2658 33.5247C49.3078 33.4999 49.3425 33.4643 49.3661 33.4216C49.3898 33.3789 49.4015 33.3307 49.4003 33.2819C49.399 33.2331 49.3847 33.1856 49.3588 33.1442L45.3406 26.715L33 19.5164L20.6593 26.715L16.6412 33.1442C16.6153 33.1856 16.601 33.2331 16.5997 33.2819C16.5984 33.3307 16.6102 33.3789 16.6339 33.4216C16.6575 33.4643 16.6921 33.4999 16.7342 33.5247C16.7762 33.5495 16.8241 33.5625 16.8729 33.5626Z" fill="#AB7A18"/>
<path d="M46.125 44.5001V34.9805L42.1857 28.9202L33 23.873L23.8143 28.9202L19.875 34.9805V44.5001H26.4375V39.0313C26.4375 38.7412 26.5527 38.463 26.7579 38.2579C26.963 38.0528 27.2412 37.9376 27.5312 37.9376H38.4688C38.7588 37.9376 39.037 38.0528 39.2421 38.2579C39.4473 38.463 39.5625 38.7412 39.5625 39.0313V44.5001H46.125ZM36.2812 34.6563C36.2812 34.9464 36.166 35.2246 35.9609 35.4297C35.7558 35.6348 35.4776 35.7501 35.1875 35.7501H30.8125C30.5224 35.7501 30.2442 35.6348 30.0391 35.4297C29.834 35.2246 29.7188 34.9464 29.7188 34.6563V30.2813C29.7188 29.9912 29.834 29.713 30.0391 29.5079C30.2442 29.3028 30.5224 29.1876 30.8125 29.1876H35.1875C35.4776 29.1876 35.7558 29.3028 35.9609 29.5079C36.166 29.713 36.2812 29.9912 36.2812 30.2813V34.6563Z" fill="#AB7A18"/>
<path d="M28.625 49.1353L31.5763 45.5938L28.625 42.0522V49.1353ZM36.1336 40.125H29.8664L33 43.8853L36.1336 40.125ZM37.375 42.0522L34.4237 45.5938L37.375 49.1353V42.0522Z" fill="#AB7A18"/>
<path d="M46.1252 14.1404C48.084 14.1404 49.6719 12.5525 49.6719 10.5937C49.6719 8.635 48.084 7.04712 46.1252 7.04712C44.1665 7.04712 42.5786 8.635 42.5786 10.5937C42.5786 12.5525 44.1665 14.1404 46.1252 14.1404Z" fill="#AB7A18"/>
<path d="M46.125 5.125C46.4151 5.125 46.6933 5.00977 46.8984 4.80465C47.1035 4.59953 47.2188 4.32133 47.2188 4.03125V1.84375C47.2188 1.55367 47.1035 1.27547 46.8984 1.07035C46.6933 0.865234 46.4151 0.75 46.125 0.75C45.8349 0.75 45.5567 0.865234 45.3516 1.07035C45.1465 1.27547 45.0312 1.55367 45.0312 1.84375V4.03125C45.0312 4.32133 45.1465 4.59953 45.3516 4.80465C45.5567 5.00977 45.8349 5.125 46.125 5.125ZM40.7109 6.7268C40.8125 6.82838 40.9331 6.90896 41.0658 6.96394C41.1986 7.01892 41.3408 7.04721 41.4845 7.04721C41.6282 7.04721 41.7704 7.01892 41.9031 6.96394C42.0359 6.90896 42.1565 6.82838 42.258 6.7268C42.3596 6.62521 42.4402 6.50461 42.4952 6.37189C42.5502 6.23916 42.5785 6.0969 42.5785 5.95324C42.5785 5.80958 42.5502 5.66732 42.4952 5.5346C42.4402 5.40187 42.3596 5.28127 42.258 5.17969L40.7109 3.63312C40.5047 3.43389 40.2284 3.32365 39.9416 3.32614C39.6548 3.32863 39.3805 3.44366 39.1777 3.64645C38.9749 3.84924 38.8599 4.12356 38.8574 4.41034C38.8549 4.69712 38.9651 4.9734 39.1644 5.17969L40.7109 6.7268ZM37.375 11.6875H39.5625C39.8526 11.6875 40.1308 11.5723 40.3359 11.3671C40.541 11.162 40.6562 10.8838 40.6562 10.5938C40.6562 10.3037 40.541 10.0255 40.3359 9.82035C40.1308 9.61523 39.8526 9.5 39.5625 9.5H37.375C37.0849 9.5 36.8067 9.61523 36.6016 9.82035C36.3965 10.0255 36.2812 10.3037 36.2812 10.5938C36.2812 10.8838 36.3965 11.162 36.6016 11.3671C36.8067 11.5723 37.0849 11.6875 37.375 11.6875ZM40.7109 14.4607L39.1644 16.0078C38.9651 16.2141 38.8549 16.4904 38.8574 16.7772C38.8599 17.0639 38.9749 17.3383 39.1777 17.5411C39.3805 17.7438 39.6548 17.8589 39.9416 17.8614C40.2284 17.8639 40.5047 17.7536 40.7109 17.5544L42.258 16.0078C42.4632 15.8027 42.5785 15.5244 42.5785 15.2343C42.5785 14.9441 42.4632 14.6659 42.258 14.4607C42.0529 14.2555 41.7746 14.1403 41.4845 14.1403C41.1944 14.1403 40.9161 14.2555 40.7109 14.4607ZM45.0312 17.1562V19.3438C45.0312 19.6338 45.1465 19.912 45.3516 20.1171C45.5567 20.3223 45.8349 20.4375 46.125 20.4375C46.4151 20.4375 46.6933 20.3223 46.8984 20.1171C47.1035 19.912 47.2188 19.6338 47.2188 19.3438V17.1562C47.2188 16.8662 47.1035 16.588 46.8984 16.3829C46.6933 16.1777 46.4151 16.0625 46.125 16.0625C45.8349 16.0625 45.5567 16.1777 45.3516 16.3829C45.1465 16.588 45.0312 16.8662 45.0312 17.1562ZM51.5938 10.5938C51.5938 10.8838 51.709 11.162 51.9141 11.3671C52.1192 11.5723 52.3974 11.6875 52.6875 11.6875H54.875C55.1651 11.6875 55.4433 11.5723 55.6484 11.3671C55.8535 11.162 55.9688 10.8838 55.9688 10.5938C55.9688 10.3037 55.8535 10.0255 55.6484 9.82035C55.4433 9.61523 55.1651 9.5 54.875 9.5H52.6875C52.3974 9.5 52.1192 9.61523 51.9141 9.82035C51.709 10.0255 51.5938 10.3037 51.5938 10.5938ZM50.7654 7.04713C50.909 7.04729 51.0513 7.01907 51.1841 6.9641C51.3168 6.90913 51.4374 6.82849 51.5389 6.7268L53.0856 5.17969C53.2849 4.9734 53.3951 4.69712 53.3926 4.41034C53.3901 4.12356 53.2751 3.84924 53.0723 3.64645C52.8695 3.44366 52.5952 3.32863 52.3084 3.32614C52.0216 3.32365 51.7453 3.43389 51.5391 3.63312L49.992 5.17969C49.8389 5.33264 49.7347 5.52755 49.6925 5.73974C49.6502 5.95194 49.6719 6.17189 49.7547 6.37178C49.8375 6.57167 49.9777 6.74252 50.1576 6.8627C50.3375 6.98289 50.549 7.04716 50.7654 7.04713ZM4.5625 40.2617H6.75V43.543H4.5625V40.2617ZM64.7188 51.0625H62.1666L62.5312 48.875V46.6875C62.8212 46.6878 63.0992 46.8032 63.3043 47.0082C63.5093 47.2133 63.6247 47.4913 63.625 47.7812C63.625 48.0713 63.7402 48.3495 63.9454 48.5546C64.1505 48.7598 64.4287 48.875 64.7188 48.875C65.0088 48.875 65.287 48.7598 65.4921 48.5546C65.6973 48.3495 65.8125 48.0713 65.8125 47.7812C65.8115 46.9113 65.4655 46.0773 64.8503 45.4622C64.2352 44.847 63.4012 44.501 62.5312 44.5H61.9745C61.8211 44.2971 61.6404 44.1164 61.4375 43.963V38.8934C62.3766 38.6506 63.2085 38.1027 63.8024 37.3357C64.3964 36.5688 64.7187 35.6263 64.7188 34.6562V30.2812C64.7188 29.1209 64.2578 28.0081 63.4373 27.1877C62.6169 26.3672 61.5041 25.9062 60.3438 25.9062C59.1834 25.9062 58.0706 26.3672 57.2502 27.1877C56.4297 28.0081 55.9688 29.1209 55.9688 30.2812V34.6562C55.9688 35.6263 56.2911 36.5688 56.8851 37.3357C57.479 38.1027 58.3109 38.6506 59.25 38.8934V43.4062H57.0625L53.7812 42.3125L50.5 44.5L51.5938 46.6875H53.7812V51.0625H46.125V46.6875H39.5625V51.0625H36.1336L33 47.3027L29.8664 51.0625H26.4375V46.6875H19.875V51.0625H15.8023C16.2777 50.9079 16.7016 50.6257 17.0276 50.2467C17.3536 49.8676 17.5692 49.4063 17.6508 48.9131C17.7325 48.4198 17.6771 47.9137 17.4907 47.4498C17.3043 46.9859 16.994 46.5821 16.5938 46.2825V44.6367H3.93236V46.9572C3.55727 47.0942 3.22906 47.3354 2.98631 47.6525C2.74355 47.9696 2.59633 48.3493 2.56193 48.7472C2.52754 49.145 2.60741 49.5444 2.79215 49.8984C2.97689 50.2525 3.25883 50.5464 3.60485 50.7458C3.95087 50.9451 4.34659 51.0415 4.74552 51.0237C5.14445 51.006 5.53002 50.8747 5.85693 50.6454C6.18384 50.416 6.43851 50.0982 6.59101 49.7291C6.74352 49.36 6.78753 48.9551 6.71787 48.5619H12.2237C12.244 49.1209 12.4351 49.6603 12.7713 50.1074C13.1075 50.5545 13.5726 50.8878 14.104 51.0625H1.28125C0.991169 51.0625 0.71297 51.1777 0.507852 51.3829C0.302734 51.588 0.1875 51.8662 0.1875 52.1562C0.1875 52.4463 0.302734 52.7245 0.507852 52.9296C0.71297 53.1348 0.991169 53.25 1.28125 53.25H64.7188C65.0088 53.25 65.287 53.1348 65.4921 52.9296C65.6973 52.7245 65.8125 52.4463 65.8125 52.1562C65.8125 51.8662 65.6973 51.588 65.4921 51.3829C65.287 51.1777 65.0088 51.0625 64.7188 51.0625ZM57.0625 48.875H59.25L59.9791 51.0625H56.3334L57.0625 48.875ZM53.9687 16.0625H53.7812C53.5966 16.0627 53.4122 16.0784 53.2301 16.1095C53.1887 16.0433 53.1403 15.9817 53.0856 15.9258L51.5391 14.3789C51.3339 14.1738 51.0557 14.0585 50.7656 14.0585C50.4755 14.0585 50.1973 14.1737 49.9921 14.3788C49.7869 14.5839 49.6717 14.8622 49.6716 15.1523C49.6716 15.4424 49.7868 15.7206 49.992 15.9258L51.2834 17.2172C50.877 17.6942 50.6157 18.2776 50.5304 18.8984C50.4452 19.5191 50.5395 20.1514 50.8023 20.7202C51.065 21.2891 51.4852 21.7708 52.0131 22.1084C52.5411 22.4459 53.1546 22.6252 53.7812 22.625H61.4375C62.2829 22.6225 63.0947 22.2938 63.7037 21.7075C64.3126 21.1212 64.6718 20.3224 64.7063 19.4777C64.7409 18.6331 64.448 17.8077 63.8889 17.1736C63.3298 16.5395 62.5475 16.1457 61.7052 16.0743C61.1448 15.4406 60.3608 15.0487 59.5177 14.9805C59.139 14.5532 58.6553 14.2321 58.1145 14.049C57.5737 13.8658 56.9945 13.827 56.4341 13.9363C55.8737 14.0455 55.3515 14.2992 54.9191 14.6721C54.4867 15.045 54.1591 15.5242 53.9687 16.0625Z" fill="#AB7A18"/>
</svg>
