<svg width="60" height="60" viewBox="0 0 60 60" fill="none" xmlns="http://www.w3.org/2000/svg">
<g clip-path="url(#clip0_40_44052)">
<path d="M50.5455 29.3636C55.2728 29.3636 59.091 25.5454 59.091 20.8181V19.8181C59.091 19.4545 58.8183 19.0909 58.3637 19.0909H57.3637C54.3637 19.0909 51.7274 20.6363 50.1819 23V20.0909L50.6365 19.6363C54.0001 16.3636 54.0001 10.909 50.6365 7.63632L49.9092 6.90905C49.6365 6.63632 49.1819 6.63632 48.9092 6.90905L48.1819 7.63632C46.5455 9.27268 45.7274 11.3636 45.7274 13.6363C45.7274 15.909 46.6365 18 48.1819 19.6363L48.6365 20.0909V23C47.091 20.6363 44.4546 19.0909 41.4546 19.0909H40.4546C40.091 19.0909 39.7274 19.3636 39.7274 19.8181V20.909C39.7274 25.6363 43.5455 29.4545 48.2728 29.4545H48.5455V33.2727C47.0001 30.909 44.3637 29.3636 41.3637 29.3636H40.3637C40.0001 29.3636 39.6365 29.6363 39.6365 30.0909V30.909C39.6365 35.6363 43.4546 39.4545 48.1819 39.4545H48.4546V43.2727C46.9092 40.909 44.2728 39.3636 41.2728 39.3636H40.2728C39.9092 39.3636 39.5455 39.6363 39.5455 40.0909V41.0909C39.5455 45.8181 43.3637 49.6363 48.091 49.6363H48.3637V53.5454C42.2728 51.3636 36.1819 50.2727 30.091 50.1818V43.8181H30.3637C35.091 43.8181 38.9092 40 38.9092 35.2727V34.2727C38.9092 33.909 38.6365 33.5454 38.1819 33.5454H37.1819C34.1819 33.5454 31.5455 35.0909 30.0001 37.4545V33.6363H30.2728C35.0001 33.6363 38.8183 29.8181 38.8183 25.0909V24.0909C38.8183 23.7272 38.5455 23.3636 38.091 23.3636H37.091C34.091 23.3636 31.4546 24.909 29.9092 27.2727V23.4545H30.1819C34.9092 23.4545 38.7274 19.6363 38.7274 14.909V13.909C38.7274 13.5454 38.4546 13.1818 38.0001 13.1818H37.0001C34.0001 13.1818 31.3637 14.7272 29.8183 17.0909V14.1818L30.2728 13.7272C33.6365 10.4545 33.6365 4.99996 30.2728 1.72723L29.5455 0.999956C29.2728 0.727228 28.8183 0.727228 28.5455 0.999956L28.8183 1.81814C25.4546 5.18177 25.4546 10.5454 28.8183 13.8181L29.2728 14.2727V17.2727C27.7274 14.909 25.091 13.3636 22.091 13.3636H21.091C20.7274 13.3636 20.3637 13.6363 20.3637 14.0909V15.0909C20.3637 19.8181 24.1819 23.6363 28.9092 23.6363H29.1819V27.4545C27.6365 25.0909 25.0001 23.5454 22.0001 23.5454H21.0001C20.6365 23.5454 20.2728 23.8181 20.2728 24.2727V25.2727C20.2728 30 24.091 33.8181 28.8183 33.8181H29.091V37.6363C27.5455 35.2727 24.9092 33.7272 21.9092 33.7272H20.9092C20.5455 33.7272 20.1819 34 20.1819 34.4545V35.4545C20.1819 40.1818 24.0001 44 28.7274 44H29.0001V50.3636C22.9092 50.4545 16.8183 51.5454 10.7274 53.6363V49.7272H11.0001C15.7274 49.7272 19.5455 45.909 19.5455 41.1818V40.1818C19.5455 39.8181 19.2728 39.4545 18.8183 39.4545H17.8183C14.8183 39.4545 12.1819 41 10.6365 43.3636V39.5454H10.9092C15.6365 39.5454 19.4546 35.7272 19.4546 31V30C19.4546 29.6363 19.1819 29.2727 18.7274 29.2727H17.7274C14.7274 29.2727 12.091 30.8181 10.5455 33.1818V29.3636H10.8183C15.5455 29.3636 19.3637 25.5454 19.3637 20.8181V19.8181C19.3637 19.4545 19.091 19.0909 18.6365 19.0909H17.6365C14.6365 19.0909 12.0001 20.6363 10.4546 23V20.0909L10.9092 19.6363C14.2728 16.3636 14.2728 10.909 10.9092 7.63632V6.90905C10.6365 6.63632 10.1819 6.63632 9.90918 6.90905L9.18191 7.63632C7.54554 9.27268 6.72736 11.3636 6.72736 13.6363C6.72736 15.909 7.63645 18 9.18191 19.6363L9.63645 20.0909V23C8.091 20.6363 5.45463 19.0909 2.45463 19.0909H1.63645C1.27282 19.0909 0.90918 19.3636 0.90918 19.8181V20.909C0.90918 25.6363 4.72736 29.4545 9.45463 29.4545H9.72736V33.2727C8.18191 30.909 5.54554 29.3636 2.54554 29.3636H1.63645C1.18191 29.2727 0.90918 29.5454 0.90918 30V30.909C0.90918 35.6363 4.72736 39.4545 9.45463 39.4545H9.72736V43.2727C8.18191 40.909 5.54554 39.3636 2.54554 39.3636H1.63645C1.27282 39.3636 0.90918 39.6363 0.90918 40.0909V41.0909C0.90918 45.8181 4.72736 49.6363 9.45463 49.6363H9.72736V54C6.90918 55.0909 4.091 56.3636 1.27282 57.909C0.90918 58.0909 0.818271 58.5454 1.00009 58.8181C1.18191 59.1818 1.63645 59.2727 1.90918 59.0909C20.3637 49 39.1819 49 58.091 59.0909H58.4546C58.7274 59.0909 58.9092 59 59.091 58.7272C59.2728 58.3636 59.1819 58 58.8183 57.8181C56.0001 56.2727 53.1819 55 50.3637 54V49.5454H50.6365C55.3637 49.5454 59.1819 45.7272 59.1819 41V40C59.1819 39.6363 58.9092 39.2727 58.4546 39.2727H57.4546C54.4546 39.2727 51.8183 40.8181 50.2728 43.1818V39.3636H50.5455C55.2728 39.3636 59.091 35.5454 59.091 30.8181V30C59.091 29.6363 58.8183 29.2727 58.3637 29.2727H57.3637C54.3637 29.2727 51.7274 30.8181 50.1819 33.1818V29.3636H50.5455Z" fill="white"/>
</g>
<defs>
<clipPath id="clip0_40_44052">
<rect width="60" height="60" fill="white"/>
</clipPath>
</defs>
</svg>
