<svg width="53" height="53" viewBox="0 0 53 53" fill="none" xmlns="http://www.w3.org/2000/svg">
<path d="M26.5 8.45313C22.9307 8.45313 19.4415 9.51156 16.4737 11.4946C13.5059 13.4776 11.1928 16.2961 9.82687 19.5938C8.46094 22.8914 8.10356 26.52 8.7999 30.0208C9.49624 33.5215 11.215 36.7372 13.7389 39.2611C16.2628 41.785 19.4785 43.5038 22.9792 44.2001C26.48 44.8965 30.1086 44.5391 33.4062 43.1731C36.7039 41.8072 39.5224 39.4941 41.5054 36.5263C43.4884 33.5585 44.5469 30.0693 44.5469 26.5C44.5419 21.7152 42.6389 17.1278 39.2555 13.7445C35.8722 10.3611 31.2848 8.45813 26.5 8.45313ZM34.7156 32.7219C34.5557 32.9245 34.352 33.0885 34.1199 33.2016C33.8878 33.3147 33.6332 33.3739 33.375 33.375C32.9864 33.3781 32.6091 33.2442 32.3094 32.9969L25.4344 27.8406C25.2318 27.6806 25.0679 27.4769 24.9549 27.2448C24.8418 27.0127 24.7824 26.7582 24.7813 26.5V14.4688C24.7813 14.0129 24.9623 13.5757 25.2847 13.2534C25.607 12.9311 26.0442 12.75 26.5 12.75C26.9558 12.75 27.393 12.9311 27.7153 13.2534C28.0377 13.5757 28.2188 14.0129 28.2188 14.4688V25.675L34.4406 30.3156C34.6195 30.4535 34.7688 30.6259 34.8799 30.8226C34.9909 31.0193 35.0613 31.2362 35.0869 31.4606C35.1126 31.685 35.0929 31.9122 35.0291 32.1289C34.9654 32.3455 34.8588 32.5472 34.7156 32.7219Z" fill="white"/>
<path d="M26.5 0.71875C21.401 0.71875 16.4164 2.23079 12.1767 5.06367C7.93701 7.89655 4.63256 11.923 2.68124 16.6339C0.729921 21.3449 0.219366 26.5286 1.21414 31.5297C2.20892 36.5307 4.66434 41.1245 8.26991 44.7301C11.8755 48.3357 16.4693 50.7911 21.4703 51.7859C26.4714 52.7806 31.6552 52.2701 36.3661 50.3188C41.077 48.3674 45.1035 45.063 47.9363 40.8233C50.7692 36.5836 52.2813 31.5991 52.2813 26.5C52.2731 19.6649 49.5542 13.1121 44.7211 8.27895C39.8879 3.4458 33.3351 0.726937 26.5 0.71875ZM26.5 48.0995C22.228 48.0995 18.052 46.8327 14.5 44.4594C10.9479 42.086 8.17946 38.7126 6.54465 34.7658C4.90983 30.819 4.48209 26.476 5.31551 22.2861C6.14893 18.0962 8.20609 14.2476 11.2268 11.2268C14.2476 8.20608 18.0963 6.14892 22.2862 5.3155C26.476 4.48207 30.819 4.90982 34.7658 6.54464C38.7126 8.17945 42.086 10.9479 44.4594 14.4999C46.8328 18.052 48.0995 22.228 48.0995 26.5C48.0941 32.2269 45.8167 37.7176 41.7672 41.7671C37.7176 45.8167 32.2269 48.0941 26.5 48.0995Z" fill="white"/>
</svg>
